<?xml version="1.0" encoding="UTF-8" standalone="no"?>
<!-- Created with Inkscape (http://www.inkscape.org/) -->

<svg
   width="140.97279mm"
   height="30.838207mm"
   viewBox="0 0 140.97279 30.838207"
   version="1.1"
   id="svg1"
   inkscape:export-filename="bitmap.svg"
   inkscape:export-xdpi="96"
   inkscape:export-ydpi="96"
   xmlns:inkscape="http://www.inkscape.org/namespaces/inkscape"
   xmlns:sodipodi="http://sodipodi.sourceforge.net/DTD/sodipodi-0.dtd"
   xmlns="http://www.w3.org/2000/svg"
   xmlns:svg="http://www.w3.org/2000/svg">
  <sodipodi:namedview
     id="namedview1"
     pagecolor="#ffffff"
     bordercolor="#000000"
     borderopacity="0.25"
     inkscape:showpageshadow="2"
     inkscape:pageopacity="0.0"
     inkscape:pagecheckerboard="0"
     inkscape:deskcolor="#d1d1d1"
     inkscape:document-units="mm"
     inkscape:export-bgcolor="#ecf2f500">
    <inkscape:page
       x="0"
       y="0"
       width="140.97279"
       height="30.838207"
       id="page2"
       margin="0"
       bleed="0" />
  </sodipodi:namedview>
  <defs
     id="defs1" />
  <g
     inkscape:label="Capa 1"
     inkscape:groupmode="layer"
     id="layer1"
     transform="translate(-32.914428,-17.54077)">
    <g
       id="text1"
       style="font-weight:bold;font-size:37.5356px;line-height:1;font-family:Sans;-inkscape-font-specification:'Sans, Bold';letter-spacing:0.211138px;word-spacing:0.901734px;white-space:pre;fill:#325598;stroke:#000000;stroke-width:22.677;stroke-linejoin:round;stroke-opacity:0;paint-order:fill markers stroke"
       transform="matrix(0.6015031,0,0,0.6015031,-65.054872,-72.718517)"
       aria-label="am-Mármol&#10;">
      <path
         style="font-family:'Segoe Print';-inkscape-font-specification:'Segoe Print, Bold'"
         d="m 187.55537,183.04001 q -4.82024,6.35979 -9.31058,6.35979 -1.64952,0 -2.84083,-1.30128 -1.19132,-1.30128 -1.19132,-3.31735 0,-4.85691 4.32539,-10.33696 4.3254,-5.49838 8.7241,-5.49838 2.23601,0 2.93247,2.25434 2.10771,0 2.10771,1.61286 0,0.76977 -0.40322,2.78584 -0.73311,3.77556 -0.73311,6.02989 0,2.34598 0.31157,3.29903 0.3299,0.95305 0.47653,1.2463 0.14662,0.29324 0.87974,0.62315 0.73312,0.34823 0.73312,0.97138 0,0.93472 -0.95306,1.55787 -0.93472,0.62315 -1.96109,0.62315 -3.44565,0 -3.09742,-6.90963 z m -1.09967,-10.172 q -1.85112,0 -4.82025,4.10546 -2.95079,4.08713 -2.95079,6.94628 0,1.50289 0.62315,1.50289 2.16269,0 5.3151,-3.83053 3.17073,-3.84887 3.17073,-6.72635 0,-0.9164 -0.42154,-1.44791 -0.40322,-0.54984 -0.9164,-0.54984 z m 15.55161,15.23051 q -0.21993,1.88778 -2.10771,1.88778 -2.40096,0 -2.40096,-3.46398 0,-5.60835 0.60483,-9.58551 0.47652,-3.09742 0.47652,-6.08487 0,-0.71479 0.4582,-1.19132 0.4582,-0.49485 1.28295,-0.49485 2.74919,0 2.74919,3.33568 0,1.08135 -0.97138,5.51671 -0.58649,2.63922 -0.58649,3.83054 5.24179,-11.50994 9.45721,-11.50994 1.7045,0 2.73086,1.35626 1.04469,1.35627 1.08135,6.01156 0.0183,4.25208 0.43987,4.25208 0.3299,0 2.29099,-4.12378 2.18103,-4.56365 3.72057,-6.02989 1.55788,-1.46623 3.26237,-1.46623 2.0344,0 2.9508,1.75948 0.9164,1.74115 1.28295,5.90159 0.27492,3.29903 0.73312,4.9852 0.47653,1.68617 1.61286,2.23601 0.9164,0.43987 0.9164,1.31961 0,0.7881 -1.0447,1.59453 -1.04469,0.7881 -2.12604,0.7881 -1.86944,0 -2.93246,-1.8328 -1.0447,-1.85112 -1.41125,-7.40448 -0.20161,-2.67588 -0.43988,-3.53729 -0.21993,-0.87974 -0.67813,-0.87974 -0.40321,0 -1.17299,1.31961 -0.76977,1.30128 -2.65755,5.20513 -1.66784,3.51896 -2.87748,4.91189 -1.19132,1.39292 -2.56591,1.39292 -1.06302,0 -2.14437,-0.9164 -1.06302,-0.91639 -1.15466,-6.65303 -0.0916,-5.1135 -0.6598,-5.1135 -0.76978,0 -3.70224,4.54533 -2.93247,4.54533 -4.41704,8.1376 z"
         id="path10" />
      <path
         style="font-family:'Microsoft PhagsPa';-inkscape-font-specification:'Microsoft PhagsPa, Bold';fill:#000000"
         d="m 245.49069,181.18889 h -10.02537 v -4.05047 h 10.02537 z m 35.69401,7.99098 h -5.84661 V 173.4545 q 0,-2.54758 0.21994,-5.62667 h -0.14662 q -0.4582,2.41929 -0.82476,3.48231 l -6.15819,17.86973 h -4.83857 l -6.26815,-17.68645 q -0.25659,-0.71479 -0.82476,-3.66559 h -0.16495 q 0.23826,3.88552 0.23826,6.81799 v 14.53405 h -5.33342 v -26.28225 h 8.66911 l 5.37008,15.57874 q 0.64148,1.86945 0.93473,3.75722 h 0.10996 q 0.49486,-2.18102 1.04469,-3.79388 l 5.37009,-15.54208 h 8.44917 z m 21.23328,0 h -5.48005 v -2.69421 h -0.0733 q -1.88777,3.15241 -5.59001,3.15241 -2.73086,0 -4.30707,-1.53955 -1.55787,-1.55787 -1.55787,-4.14211 0,-5.46172 6.46976,-6.30481 l 5.09516,-0.67813 q 0,-3.07909 -3.33568,-3.07909 -3.35401,0 -6.37812,1.99774 v -4.36205 q 1.20964,-0.62315 3.29903,-1.09967 2.10771,-0.47653 3.83053,-0.47653 8.02764,0 8.02764,8.00931 z m -5.4434,-7.62442 v -1.26463 l -3.40899,0.43987 q -2.8225,0.36656 -2.8225,2.54758 0,0.98971 0.67813,1.63119 0.69646,0.62315 1.86945,0.62315 1.63118,0 2.65755,-1.118 1.02636,-1.13634 1.02636,-2.85916 z m 3.72057,-20.03243 -5.73664,5.91992 h -4.17877 l 4.76526,-5.91992 z m 18.759,14.11251 q -1.04469,-0.56817 -2.43761,-0.56817 -1.88778,0 -2.9508,1.39293 -1.06302,1.37459 -1.06302,3.75722 v 8.96236 h -5.79162 v -18.7678 h 5.79162 v 3.48231 h 0.0733 q 1.37459,-3.81221 4.94854,-3.81221 0.91639,0 1.42957,0.21993 z m 32.70655,13.54434 h -5.7733 v -10.70351 q 0,-4.08713 -3.00578,-4.08713 -1.42957,0 -2.32764,1.22797 -0.89807,1.22797 -0.89807,3.06076 v 10.50191 h -5.79163 v -10.81348 q 0,-3.97716 -2.95079,-3.97716 -1.48457,0 -2.38263,1.17299 -0.87974,1.17298 -0.87974,3.18906 v 10.42859 h -5.79163 v -18.7678 h 5.79163 v 2.93247 h 0.0733 q 0.89807,-1.50289 2.51092,-2.43762 1.63119,-0.95305 3.55562,-0.95305 3.97716,0 5.4434,3.50063 2.14436,-3.50063 6.3048,-3.50063 6.12153,0 6.12153,7.55111 z m 13.73716,0.4582 q -4.69195,0 -7.38615,-2.6209 -2.67588,-2.63922 -2.67588,-7.14789 0,-4.65529 2.78585,-7.27619 2.78584,-2.63922 7.53278,-2.63922 4.67362,0 7.33117,2.63922 2.65755,2.6209 2.65755,6.94629 0,4.67362 -2.74919,7.38615 -2.73086,2.71254 -7.49613,2.71254 z m 0.14663,-15.24884 q -2.05273,0 -3.18906,1.41125 -1.13633,1.41125 -1.13633,3.99549 0,5.40674 4.36204,5.40674 4.16044,0 4.16044,-5.55337 0,-5.26011 -4.19709,-5.26011 z m 19.85867,14.79064 h -5.79163 v -27.78514 h 5.79163 z"
         id="path11" />
    </g>
  </g>
</svg>
