<?xml version="1.0" encoding="UTF-8" standalone="no"?>
<!-- Created with Inkscape (http://www.inkscape.org/) -->

<svg
   width="34.331329mm"
   height="9.8572531mm"
   viewBox="0 0 34.331329 9.8572531"
   version="1.1"
   id="svg1"
   sodipodi:docname="white_logo.svg"
   xmlns:inkscape="http://www.inkscape.org/namespaces/inkscape"
   xmlns:sodipodi="http://sodipodi.sourceforge.net/DTD/sodipodi-0.dtd"
   xmlns="http://www.w3.org/2000/svg"
   xmlns:svg="http://www.w3.org/2000/svg">
  <sodipodi:namedview
     id="namedview1"
     pagecolor="#ffffff"
     bordercolor="#000000"
     borderopacity="0.25"
     inkscape:showpageshadow="2"
     inkscape:pageopacity="0.0"
     inkscape:pagecheckerboard="0"
     inkscape:deskcolor="#d1d1d1"
     inkscape:document-units="mm"
     inkscape:export-bgcolor="#32559800">
    <inkscape:page
       x="0"
       y="0"
       width="34.331329"
       height="9.8572531"
       id="page2"
       margin="0"
       bleed="0" />
  </sodipodi:namedview>
  <defs
     id="defs1" />
  <g
     id="layer1"
     transform="translate(-98.95417,-38.36459)">
    <g
       id="text1"
       style="font-weight:bold;font-size:5.06394px;font-family:Leelawadee;-inkscape-font-specification:'Leelawadee, Bold';fill:#ffffff;stroke:#000000;stroke-width:5.99996;stroke-linejoin:round;stroke-opacity:0;paint-order:fill markers stroke"
       aria-label="am-Mármol">
      <path
         style="font-family:'Segoe Print';-inkscape-font-specification:'Segoe Print, Bold'"
         d="m 103.75422,44.284738 q -0.6503,0.858001 -1.25609,0.858001 -0.22254,0 -0.38326,-0.175556 -0.16072,-0.175557 -0.16072,-0.447546 0,-0.655246 0.58354,-1.394561 0.58354,-0.741789 1.17697,-0.741789 0.30166,0 0.39562,0.304134 0.28435,0 0.28435,0.217591 0,0.10385 -0.0544,0.375839 -0.0989,0.509361 -0.0989,0.813494 0,0.316497 0.042,0.445073 0.0445,0.128577 0.0643,0.168139 0.0198,0.03956 0.11869,0.08407 0.0989,0.04698 0.0989,0.131049 0,0.126104 -0.12857,0.210174 -0.12611,0.08407 -0.26457,0.08407 -0.46486,0 -0.41788,-0.93218 z m -0.14835,-1.372308 q -0.24974,0 -0.65031,0.553868 -0.39809,0.551396 -0.39809,0.937126 0,0.202755 0.0841,0.202755 0.29177,0 0.71706,-0.516779 0.42777,-0.519252 0.42777,-0.907454 0,-0.123631 -0.0569,-0.195338 -0.0544,-0.07418 -0.12363,-0.07418 z m 2.06958,2.054753 q -0.0297,0.25468 -0.28435,0.25468 -0.32391,0 -0.32391,-0.467326 0,-0.756624 0.0816,-1.293184 0.0643,-0.417874 0.0643,-0.820912 0,-0.09643 0.0618,-0.160721 0.0618,-0.06676 0.17308,-0.06676 0.3709,0 0.3709,0.450018 0,0.145885 -0.13105,0.744261 -0.0791,0.356058 -0.0791,0.516779 0.70717,-1.55281 1.27588,-1.55281 0.22995,0 0.36842,0.182974 0.14094,0.182975 0.14589,0.811022 0.002,0.57365 0.0593,0.57365 0.0445,0 0.30908,-0.556341 0.29424,-0.615685 0.50194,-0.813495 0.21017,-0.19781 0.44013,-0.19781 0.27446,0 0.39809,0.237372 0.12363,0.2349 0.17308,0.796186 0.0371,0.445073 0.0989,0.672555 0.0643,0.227481 0.21759,0.30166 0.12363,0.05934 0.12363,0.178029 0,0.106323 -0.14094,0.215119 -0.14094,0.106323 -0.28682,0.106323 -0.25221,0 -0.39562,-0.247263 -0.14094,-0.249735 -0.19039,-0.998941 -0.0272,-0.361004 -0.0594,-0.477217 -0.0297,-0.118686 -0.0915,-0.118686 -0.0544,0 -0.15824,0.178029 -0.10385,0.175556 -0.35853,0.702226 -0.22501,0.474744 -0.38821,0.662664 -0.16072,0.18792 -0.34616,0.18792 -0.14342,0 -0.2893,-0.123632 -0.14341,-0.123631 -0.15578,-0.897563 -0.0124,-0.689863 -0.089,-0.689863 -0.10385,0 -0.49947,0.613211 -0.39562,0.613212 -0.59591,1.097847 z"
         id="path1" />
      <path
         style="font-family:'Microsoft PhagsPa';-inkscape-font-specification:'Microsoft PhagsPa, Bold'"
         d="m 111.51333,44.035002 h -1.35253 v -0.54645 h 1.35253 z m 4.787,1.078066 h -0.78877 v -2.121514 q 0,-0.343695 0.0297,-0.759097 h -0.0198 q -0.0618,0.326387 -0.11127,0.469799 l -0.83081,2.410812 h -0.65277 l -0.84564,-2.386085 q -0.0346,-0.09643 -0.11127,-0.494526 h -0.0222 q 0.0321,0.524197 0.0321,0.919817 v 1.960794 h -0.71953 v -3.545747 h 1.16955 l 0.72448,2.101732 q 0.0865,0.252208 0.12611,0.506889 h 0.0148 q 0.0668,-0.294243 0.14094,-0.511834 l 0.72448,-2.096787 h 1.13988 z m 2.83611,0 h -0.73932 v -0.363477 h -0.01 q -0.25468,0.425292 -0.75415,0.425292 -0.36842,0 -0.58107,-0.2077 -0.21017,-0.210174 -0.21017,-0.558814 0,-0.736843 0.87284,-0.850584 l 0.68739,-0.09149 q 0,-0.415401 -0.45002,-0.415401 -0.45249,0 -0.86048,0.269516 v -0.588485 q 0.1632,-0.08407 0.44508,-0.148358 0.28435,-0.06429 0.51678,-0.06429 1.08301,0 1.08301,1.080538 z m -0.73437,-1.028613 v -0.170611 l -0.45991,0.05934 q -0.38079,0.04945 -0.38079,0.343695 0,0.133522 0.0915,0.220064 0.094,0.08407 0.25221,0.08407 0.22006,0 0.35853,-0.15083 0.13847,-0.153303 0.13847,-0.38573 z m 0.50194,-2.702581 -0.77393,0.798658 h -0.56376 l 0.64288,-0.798658 z m 2.5023,1.903922 q -0.14094,-0.07665 -0.32886,-0.07665 -0.25468,0 -0.39809,0.18792 -0.14342,0.185447 -0.14342,0.506888 v 1.209115 h -0.78135 v -2.53197 h 0.78135 v 0.469799 h 0.01 q 0.18545,-0.514307 0.66761,-0.514307 0.12363,0 0.19287,0.02967 z m 4.38396,1.827272 h -0.77887 v -1.444015 q 0,-0.551395 -0.40551,-0.551395 -0.19287,0 -0.31403,0.165666 -0.12116,0.165666 -0.12116,0.412928 v 1.416816 h -0.78135 v -1.45885 q 0,-0.53656 -0.39809,-0.53656 -0.20028,0 -0.32144,0.158248 -0.11869,0.158248 -0.11869,0.430237 v 1.406925 h -0.78135 v -2.53197 h 0.78135 v 0.39562 h 0.01 q 0.12116,-0.202755 0.33875,-0.328859 0.22007,-0.128577 0.47969,-0.128577 0.53656,0 0.73437,0.472272 0.2893,-0.472272 0.85059,-0.472272 0.82585,0 0.82585,1.018722 z m 1.8248,0.06182 q -0.63299,0 -0.99646,-0.353585 -0.36101,-0.356059 -0.36101,-0.964325 0,-0.628047 0.37584,-0.981633 0.37584,-0.356058 1.01625,-0.356058 0.63052,0 0.98905,0.356058 0.35853,0.353586 0.35853,0.937126 0,0.63052 -0.37089,0.996469 -0.36842,0.365948 -1.01131,0.365948 z m 0.0198,-2.057225 q -0.27694,0 -0.43024,0.190392 -0.1533,0.190392 -0.1533,0.539033 0,0.729425 0.58848,0.729425 0.56129,0 0.56129,-0.749206 0,-0.709644 -0.56623,-0.709644 z m 2.65065,1.99541 h -0.78135 V 41.36457 h 0.78135 z"
         id="path2" />
    </g>
  </g>
</svg>
